<svg xmlns="http://www.w3.org/2000/svg" xmlns:xlink="http://www.w3.org/1999/xlink" width="534" zoomAndPan="magnify" viewBox="0 0 400.5 95.999999" height="128" preserveAspectRatio="xMidYMid meet" version="1.0"><defs><g/></defs><g fill="#000000" fill-opacity="1"><g transform="translate(0.413052, 74.653682)"><g><path d="M 6.421875 -60.171875 L 44.609375 -60.171875 L 44.609375 -44.453125 L 38.1875 -44.453125 L 38.1875 -53.75 L 19.421875 -53.75 L 19.421875 -33.296875 L 38.1875 -33.296875 L 38.1875 -26.875 L 19.421875 -26.875 L 19.421875 -6.421875 L 38.1875 -6.421875 L 38.1875 -15.71875 L 44.609375 -15.71875 L 44.609375 0 L 6.421875 0 L 6.421875 -6.421875 L 12.03125 -6.421875 L 12.03125 -53.75 L 6.421875 -53.75 Z M 6.421875 -60.171875 "/></g></g></g><g fill="#000000" fill-opacity="1"><g transform="translate(51.418159, 74.653682)"><g><path d="M 19.421875 -6.421875 L 25.03125 -6.421875 L 25.03125 0 L 6.421875 0 L 6.421875 -6.421875 L 12.03125 -6.421875 L 12.03125 -53.75 L 6.421875 -53.75 L 6.421875 -60.171875 L 23.109375 -60.171875 L 46.53125 -9.0625 L 46.53125 -53.75 L 40.921875 -53.75 L 40.921875 -60.171875 L 59.53125 -60.171875 L 59.53125 -53.75 L 53.921875 -53.75 L 53.921875 0 L 42.84375 0 L 19.421875 -51.03125 Z M 19.421875 -6.421875 "/></g></g></g><g fill="#000000" fill-opacity="1"><g transform="translate(116.537878, 74.653682)"><g><path d="M 1.609375 -53.75 L 1.609375 -60.171875 L 18.609375 -60.171875 L 18.609375 -53.75 L 13.078125 -53.75 L 27.515625 -7.296875 L 42.046875 -53.75 L 36.5 -53.75 L 36.5 -60.171875 L 53.515625 -60.171875 L 53.515625 -53.75 L 49.421875 -53.75 L 32.65625 0 L 22.46875 0 L 5.703125 -53.75 Z M 1.609375 -53.75 "/></g></g></g><g fill="#000000" fill-opacity="1"><g transform="translate(171.632985, 74.653682)"><g><path d="M 5.609375 -6.421875 L 12.03125 -6.421875 L 12.03125 -53.75 L 5.609375 -53.75 L 5.609375 -60.171875 L 25.828125 -60.171875 L 25.828125 -53.75 L 19.421875 -53.75 L 19.421875 -6.421875 L 25.828125 -6.421875 L 25.828125 0 L 5.609375 0 Z M 5.609375 -6.421875 "/></g></g></g><g fill="#000000" fill-opacity="1"><g transform="translate(203.07008, 74.653682)"><g><path d="M 41.71875 -41.234375 L 35.0625 -41.234375 L 35.0625 -48.296875 L 30.25 -53.28125 L 17.96875 -53.28125 L 13.796875 -49.015625 L 13.796875 -37.953125 L 17.734375 -33.9375 L 34.421875 -33.9375 L 42.53125 -25.4375 L 42.53125 -8.828125 L 34.1875 0 L 13.953125 0 L 5.609375 -8.828125 L 5.609375 -18.9375 L 12.28125 -18.9375 L 12.28125 -11.875 L 17.171875 -6.90625 L 31.046875 -6.90625 L 35.140625 -11.15625 L 35.140625 -23.109375 L 31.296875 -27.03125 L 14.609375 -27.03125 L 6.421875 -35.625 L 6.421875 -51.34375 L 14.765625 -60.171875 L 33.375 -60.171875 L 41.71875 -51.34375 Z M 41.71875 -41.234375 "/></g></g></g><g fill="#000000" fill-opacity="1"><g transform="translate(251.188083, 74.653682)"><g><path d="M 5.609375 -6.421875 L 12.03125 -6.421875 L 12.03125 -53.75 L 5.609375 -53.75 L 5.609375 -60.171875 L 25.828125 -60.171875 L 25.828125 -53.75 L 19.421875 -53.75 L 19.421875 -6.421875 L 25.828125 -6.421875 L 25.828125 0 L 5.609375 0 Z M 5.609375 -6.421875 "/></g></g></g><g fill="#000000" fill-opacity="1"><g transform="translate(282.625178, 74.653682)"><g><path d="M 14.765625 0 L 6.421875 -8.828125 L 6.421875 -51.34375 L 14.765625 -60.171875 L 37.390625 -60.171875 L 45.734375 -51.34375 L 45.734375 -8.828125 L 37.390625 0 Z M 17.890625 -6.90625 L 34.1875 -6.90625 L 38.359375 -11.15625 L 38.359375 -49.015625 L 34.265625 -53.28125 L 17.96875 -53.28125 L 13.796875 -49.015625 L 13.796875 -11.15625 Z M 17.890625 -6.90625 "/></g></g></g><g fill="#000000" fill-opacity="1"><g transform="translate(334.753024, 74.653682)"><g><path d="M 19.421875 -6.421875 L 25.03125 -6.421875 L 25.03125 0 L 6.421875 0 L 6.421875 -6.421875 L 12.03125 -6.421875 L 12.03125 -53.75 L 6.421875 -53.75 L 6.421875 -60.171875 L 23.109375 -60.171875 L 46.53125 -9.0625 L 46.53125 -53.75 L 40.921875 -53.75 L 40.921875 -60.171875 L 59.53125 -60.171875 L 59.53125 -53.75 L 53.921875 -53.75 L 53.921875 0 L 42.84375 0 L 19.421875 -51.03125 Z M 19.421875 -6.421875 "/></g></g></g><g fill="#000000" fill-opacity="1"><g transform="translate(0.413052, 74.653682)"><g><path d="M 6.421875 -60.171875 L 44.609375 -60.171875 L 44.609375 -44.453125 L 38.1875 -44.453125 L 38.1875 -53.75 L 19.421875 -53.75 L 19.421875 -33.296875 L 38.1875 -33.296875 L 38.1875 -26.875 L 19.421875 -26.875 L 19.421875 -6.421875 L 38.1875 -6.421875 L 38.1875 -15.71875 L 44.609375 -15.71875 L 44.609375 0 L 6.421875 0 L 6.421875 -6.421875 L 12.03125 -6.421875 L 12.03125 -53.75 L 6.421875 -53.75 Z M 6.421875 -60.171875 "/></g></g></g><g fill="#000000" fill-opacity="1"><g transform="translate(51.418159, 74.653682)"><g><path d="M 19.421875 -6.421875 L 25.03125 -6.421875 L 25.03125 0 L 6.421875 0 L 6.421875 -6.421875 L 12.03125 -6.421875 L 12.03125 -53.75 L 6.421875 -53.75 L 6.421875 -60.171875 L 23.109375 -60.171875 L 46.53125 -9.0625 L 46.53125 -53.75 L 40.921875 -53.75 L 40.921875 -60.171875 L 59.53125 -60.171875 L 59.53125 -53.75 L 53.921875 -53.75 L 53.921875 0 L 42.84375 0 L 19.421875 -51.03125 Z M 19.421875 -6.421875 "/></g></g></g><g fill="#000000" fill-opacity="1"><g transform="translate(116.537878, 74.653682)"><g><path d="M 1.609375 -53.75 L 1.609375 -60.171875 L 18.609375 -60.171875 L 18.609375 -53.75 L 13.078125 -53.75 L 27.515625 -7.296875 L 42.046875 -53.75 L 36.5 -53.75 L 36.5 -60.171875 L 53.515625 -60.171875 L 53.515625 -53.75 L 49.421875 -53.75 L 32.65625 0 L 22.46875 0 L 5.703125 -53.75 Z M 1.609375 -53.75 "/></g></g></g><g fill="#000000" fill-opacity="1"><g transform="translate(171.632985, 74.653682)"><g><path d="M 5.609375 -6.421875 L 12.03125 -6.421875 L 12.03125 -53.75 L 5.609375 -53.75 L 5.609375 -60.171875 L 25.828125 -60.171875 L 25.828125 -53.75 L 19.421875 -53.75 L 19.421875 -6.421875 L 25.828125 -6.421875 L 25.828125 0 L 5.609375 0 Z M 5.609375 -6.421875 "/></g></g></g><g fill="#000000" fill-opacity="1"><g transform="translate(203.07008, 74.653682)"><g><path d="M 41.71875 -41.234375 L 35.0625 -41.234375 L 35.0625 -48.296875 L 30.25 -53.28125 L 17.96875 -53.28125 L 13.796875 -49.015625 L 13.796875 -37.953125 L 17.734375 -33.9375 L 34.421875 -33.9375 L 42.53125 -25.4375 L 42.53125 -8.828125 L 34.1875 0 L 13.953125 0 L 5.609375 -8.828125 L 5.609375 -18.9375 L 12.28125 -18.9375 L 12.28125 -11.875 L 17.171875 -6.90625 L 31.046875 -6.90625 L 35.140625 -11.15625 L 35.140625 -23.109375 L 31.296875 -27.03125 L 14.609375 -27.03125 L 6.421875 -35.625 L 6.421875 -51.34375 L 14.765625 -60.171875 L 33.375 -60.171875 L 41.71875 -51.34375 Z M 41.71875 -41.234375 "/></g></g></g><g fill="#000000" fill-opacity="1"><g transform="translate(251.188083, 74.653682)"><g><path d="M 5.609375 -6.421875 L 12.03125 -6.421875 L 12.03125 -53.75 L 5.609375 -53.75 L 5.609375 -60.171875 L 25.828125 -60.171875 L 25.828125 -53.75 L 19.421875 -53.75 L 19.421875 -6.421875 L 25.828125 -6.421875 L 25.828125 0 L 5.609375 0 Z M 5.609375 -6.421875 "/></g></g></g><g fill="#000000" fill-opacity="1"><g transform="translate(282.625178, 74.653682)"><g><path d="M 14.765625 0 L 6.421875 -8.828125 L 6.421875 -51.34375 L 14.765625 -60.171875 L 37.390625 -60.171875 L 45.734375 -51.34375 L 45.734375 -8.828125 L 37.390625 0 Z M 17.890625 -6.90625 L 34.1875 -6.90625 L 38.359375 -11.15625 L 38.359375 -49.015625 L 34.265625 -53.28125 L 17.96875 -53.28125 L 13.796875 -49.015625 L 13.796875 -11.15625 Z M 17.890625 -6.90625 "/></g></g></g><g fill="#000000" fill-opacity="1"><g transform="translate(334.753024, 74.653682)"><g><path d="M 19.421875 -6.421875 L 25.03125 -6.421875 L 25.03125 0 L 6.421875 0 L 6.421875 -6.421875 L 12.03125 -6.421875 L 12.03125 -53.75 L 6.421875 -53.75 L 6.421875 -60.171875 L 23.109375 -60.171875 L 46.53125 -9.0625 L 46.53125 -53.75 L 40.921875 -53.75 L 40.921875 -60.171875 L 59.53125 -60.171875 L 59.53125 -53.75 L 53.921875 -53.75 L 53.921875 0 L 42.84375 0 L 19.421875 -51.03125 Z M 19.421875 -6.421875 "/></g></g></g></svg>